<svg width="28" height="23" viewBox="0 0 28 23" fill="none" xmlns="http://www.w3.org/2000/svg">
<path d="M26.0593 7.37867C25.9492 6.55172 25.9337 5.12742 26.7018 4.64916C26.7155 4.6404 26.7258 4.62773 26.7378 4.61685C27.3658 4.416 27.8003 4.13413 27.4592 3.75484L18.1959 0.963715L3.19649 3.0491C3.19649 3.0491 1.47887 3.2946 1.63231 5.96313C1.7156 7.41552 2.17113 8.12881 2.5695 8.47985L1.33867 8.85079C0.997041 9.23008 1.43154 9.51203 2.05958 9.71256C2.07152 9.72376 2.08158 9.73635 2.09555 9.74511C2.86315 10.2238 2.84837 11.6479 2.73796 12.475C-0.019632 13.258 0.97025 13.5132 0.97025 13.5132L1.57516 13.6596C1.14967 14.0441 0.727103 14.7732 0.806257 16.156C0.959777 18.8241 2.3706 19.0082 2.3706 19.0082L12.1861 22.1986L27.0015 18.6101C27.0015 18.6101 27.9917 18.3545 25.2334 17.5714C25.1225 16.7456 25.107 15.3216 25.8764 14.8417C25.8906 14.8332 25.9009 14.8203 25.9123 14.8096C26.5404 14.6087 26.9745 14.3271 26.6333 13.9478L25.9894 13.7534C26.4188 13.4944 27.0639 12.8175 27.165 11.0594C27.2347 9.85009 26.9192 9.14183 26.5541 8.72487L27.8269 8.41685C27.827 8.41734 28.8172 8.16177 26.0593 7.37867ZM13.6671 7.34449L16.1585 6.83246L24.578 5.10225L25.8323 4.84425C25.4315 5.57783 25.4483 6.58176 25.5147 7.22702C25.5292 7.37298 25.5459 7.50629 25.5622 7.60761L24.1892 7.94899L13.5624 10.5926L13.6671 7.34449ZM2.96511 9.94101L4.21933 10.199L12.3051 11.8612L13.0114 12.0059L15.1298 12.4412L15.2343 15.6894L4.31221 12.9721L3.23546 12.7045C3.25129 12.6031 3.26801 12.4699 3.2832 12.3235C3.34912 11.6788 3.36625 10.6746 2.96511 9.94101ZM2.47785 5.8347C2.46266 5.12491 2.58915 4.61158 2.8448 4.35065C3.00749 4.18406 3.19949 4.14939 3.33118 4.14939C3.40075 4.14939 3.45084 4.15905 3.45425 4.15905L9.9171 6.26603L13.1415 7.31729L13.0357 10.5881L3.98999 8.05209L3.51262 7.91838C3.49509 7.91343 3.4713 7.91002 3.45295 7.90921C3.41569 7.90653 2.52136 7.82421 2.47785 5.8347ZM12.2095 20.7815L2.68665 18.1117C2.66903 18.1065 2.64549 18.1031 2.62714 18.1022C2.58923 18.0997 1.6945 18.0175 1.65123 16.0285C1.6358 15.3178 1.76294 14.8049 2.0181 14.5438C2.1812 14.3772 2.37328 14.3425 2.50472 14.3425C2.57445 14.3425 2.62438 14.3518 2.62804 14.3518C2.62804 14.3518 2.62844 14.3518 2.62804 14.3518L12.3146 17.5106L12.2095 20.7815ZM24.688 17.4199C24.703 17.5663 24.7197 17.6994 24.7359 17.8009L12.7359 20.7861L12.8408 17.5379L15.4063 17.0105L15.7852 17.1021L17.2053 16.6406L23.7513 15.2955L25.0061 15.0373C24.6049 15.7708 24.6216 16.7751 24.688 17.4199ZM25.349 13.0055C25.3271 13.006 25.3053 13.0089 25.2848 13.0154L24.3797 13.2688L15.7621 15.6851L15.6568 12.4143L18.4841 11.4921L25.3301 9.25947C25.331 9.25906 25.6903 9.17926 25.954 9.44741C26.2092 9.70834 26.3358 10.2217 26.3209 10.9315C26.2763 12.9203 25.3815 13.003 25.349 13.0055Z" fill="#268DEC"/>
</svg>
