<svg id="Layer_1" data-name="Layer 1" xmlns="http://www.w3.org/2000/svg" viewBox="0 0 367.88 339.39"><defs><style>.cls-1{fill:#34a853;}</style></defs><path class="cls-1" d="M6.22,13C8.79,7.56,12.47,3.7,19,3.57A16.52,16.52,0,0,1,26.34,5.5L258.48,112.67q48,22.15,96,44.29c8.32,3.84,11.41,11.17,7.78,18.36-1.73,3.42-4.8,5.21-8.13,6.75Q306.61,204,259.09,226,143.5,279.31,27.9,332.67c-10.78,5-15.83,3.41-21.68-6.77v-7a20.48,20.48,0,0,1,3.58-6.66Q62,242.7,114.12,173.16c2.78-3.71,2.78-3.71,0-7.41Q62.09,96.33,10,27c-1.91-2.54-3.53-5.11-3.77-8.35Z"/></svg>