<svg width="10" height="10" viewBox="0 0 10 10" fill="none" xmlns="http://www.w3.org/2000/svg">
<path d="M9.67691 8.11771L6.55928 5.00042L9.67691 1.88314C10.1064 1.45311 10.1064 0.75511 9.67803 0.323912C9.24745 -0.108341 8.55037 -0.10723 8.11979 0.3228L4.99999 3.44231L1.88019 0.3228C1.44962 -0.10723 0.752536 -0.108341 0.32196 0.323912C-0.107505 0.755054 -0.107505 1.45305 0.32307 1.88314L3.4407 5.00042L0.32307 8.11771C-0.107505 8.54774 -0.107505 9.24574 0.32196 9.67694C0.536721 9.89303 0.819718 10 1.10166 10C1.3836 10 1.66549 9.89192 1.88025 9.67799L5.00005 6.55848L8.11985 9.67799C8.33461 9.89303 8.61649 10 8.89844 10C9.18038 10 9.46338 9.89192 9.67814 9.67694C10.1075 9.24574 10.1075 8.54774 9.67691 8.11771Z" fill="#92929E"/>
</svg>
