<svg width="29" height="29" viewBox="0 0 29 29" fill="none" xmlns="http://www.w3.org/2000/svg">
<path d="M19.6173 17.8147L15.925 14.1277L19.6173 10.4407C20.1259 9.93203 20.1259 9.10646 19.6186 8.59646C19.1087 8.08521 18.2831 8.08652 17.7731 8.59514L14.0783 12.2848L10.3835 8.59514C9.87355 8.08652 9.04798 8.08521 8.53804 8.59646C8.02942 9.1064 8.02942 9.93196 8.53936 10.4407L12.2316 14.1277L8.53936 17.8147C8.02942 18.3233 8.02942 19.1489 8.53804 19.6589C8.79239 19.9145 9.12754 20.041 9.46145 20.041C9.79536 20.041 10.1292 19.9131 10.3836 19.6601L14.0784 15.9705L17.7732 19.6601C18.0276 19.9145 18.3614 20.041 18.6953 20.041C19.0292 20.041 19.3644 19.9131 19.6187 19.6589C20.1272 19.1489 20.1272 18.3233 19.6173 17.8147Z" fill="#92929E"/>
<path d="M24.0346 4.11657C18.5459 -1.37219 9.61213 -1.37219 4.12336 4.11657C1.46459 6.77639 0 10.312 0 14.0722C0 17.8324 1.46459 21.368 4.12336 24.0267C6.8683 26.7717 10.4737 28.1436 14.079 28.1436C17.6843 28.1436 21.2897 26.7717 24.0346 24.0267C29.5234 18.538 29.5234 9.60638 24.0346 4.11657ZM22.4926 22.4847C17.8534 27.1239 10.3046 27.1239 5.66537 22.4847C3.41886 20.2382 2.18108 17.2501 2.18108 14.0722C2.18108 10.8943 3.41886 7.90619 5.66537 5.65858C10.3046 1.01936 17.8534 1.02046 22.4926 5.65858C27.1307 10.2978 27.1307 17.8466 22.4926 22.4847Z" fill="#92929E"/>
</svg>
